# Blender 3.3.0
# www.blender.org
mtllib 2.mtl
g Cube.049_Mesh
v -4.765572 -1.800089 0.539941
v -4.765572 1.800089 0.539941
v -4.765572 -1.800089 -0.539941
v -4.765572 1.800089 -0.539941
v 4.765572 -1.800089 0.539941
v 4.765572 1.800089 0.539941
v 4.765572 -1.800089 -0.539941
v 4.765572 1.800089 -0.539941
v -7.397994 -1.562006 -2.132305
v -5.973666 2.181655 -4.867261
v 7.719158 -1.562006 -2.132305
v 8.119040 -3.247995 -10.355494
v 8.164639 2.172999 -2.862412
v 7.719158 0.672115 -4.636237
v 8.119040 6.239974 -6.138183
v -7.397994 0.672115 -4.636236
v -5.973666 2.181655 -9.317163
v 8.154203 4.138848 -3.016314
v 8.119040 -0.020264 -1.086473
v 5.287241 2.181655 -4.867261
v 8.119040 -1.904372 0.387615
v 8.119040 8.321290 -10.355494
v 5.287241 2.181655 -9.317163
v 8.119040 8.321290 -9.109721
v 8.119040 -3.095313 0.387615
v -8.798924 -3.247995 -10.355502
v -8.753326 2.172999 -2.862422
v -8.798924 6.239974 -6.138193
v -8.798924 -0.020264 -1.086482
v -8.798924 -1.904372 0.387605
v -8.798924 8.321290 -10.355502
v -8.798924 8.321290 -9.109730
v -8.798924 -3.095313 0.387605
v -8.763761 4.138848 -3.016323
v 8.119439 6.011286 -3.913929
v -8.798525 6.011286 -3.913939
v 8.119040 7.664739 -7.488581
v -8.798924 7.664739 -7.488590
v 5.287241 6.239974 -6.138185
v -5.973666 6.239974 -6.138191
v 5.287241 7.664739 -7.488583
v -5.973666 7.664739 -7.488589
v -5.973666 8.321290 -9.317163
v -5.973666 8.321290 -9.109728
v 5.287241 8.321290 -9.317163
v 5.287241 8.321290 -9.109723
v 5.287241 6.109303 -4.867261
v -5.973666 6.109303 -4.867261
v -7.733811 -0.020264 -1.086481
v 7.383340 -0.020264 -1.086473
v -7.727749 -1.913546 -0.154115
v 7.389401 -1.913542 -0.154109
v -7.737550 1.847983 -2.599247
v 7.379600 1.847987 -2.599242
v -6.226688 4.603381 -3.239006
v -7.747649 4.603381 -3.239010
v -6.229813 5.546752 -3.691242
v -7.750774 5.546752 -3.691247
v -6.229814 5.646992 -3.482139
v -7.750775 5.646992 -3.482144
v -7.747650 4.703621 -3.029908
v -6.226688 4.703621 -3.029903
v -4.418759 4.603381 -3.239006
v -5.939720 4.603381 -3.239010
v -4.421884 5.546752 -3.691242
v -5.942845 5.546752 -3.691247
v -4.421885 5.646992 -3.482139
v -5.942845 5.646992 -3.482144
v -5.939721 4.703621 -3.029908
v -4.418759 4.703621 -3.029903
v 6.896097 4.603381 -3.239006
v 4.095290 4.603381 -3.239010
v 6.890343 5.546752 -3.691242
v 4.089534 5.546752 -3.691247
v 6.890341 5.646992 -3.482139
v 4.089534 5.646992 -3.482144
v 4.095288 4.703621 -3.029908
v 6.896097 4.703621 -3.029903
v -4.798093 -3.054314 0.875075
v -4.276403 -0.079458 0.617921
v -4.798093 -3.054314 0.564285
v -4.276403 -0.079458 0.564285
v -3.362083 -3.054314 0.875075
v -3.362083 -0.079458 0.617921
v -3.362083 -3.054314 0.564285
v -3.362083 -0.079458 0.564285
v 4.878409 -3.054314 0.875075
v 4.356719 -0.079458 0.617921
v 4.878409 -3.054314 0.564285
v 4.356719 -0.079458 0.564285
v 3.442399 -3.054314 0.875075
v 3.442399 -0.079458 0.617921
v 3.442399 -3.054314 0.564285
v 3.442399 -0.079458 0.564285
v 2.190399 2.181655 -9.317163
v 5.073239 2.181655 -9.317163
v 2.190399 8.321291 -9.317163
v 5.073239 8.321291 -9.317163
v 5.073239 2.181655 -7.109037
v 5.073239 8.321291 -7.109037
v 2.190399 2.181655 -9.317163
v 5.073239 2.181655 -9.317163
v 2.190399 8.321291 -9.317163
v 5.073239 8.321291 -9.317163
v 5.073239 2.181655 -7.109037
v 5.073239 8.321291 -7.109037
v 2.190399 2.181655 -8.986349
v 4.600181 2.181655 -8.986349
v 2.190399 8.321291 -8.986349
v 4.600181 8.321291 -8.986349
v 4.600181 2.181655 -7.109037
v 4.600181 8.321291 -7.109037
v -2.548914 2.181655 -9.317163
v -5.431755 2.181655 -9.317163
v -2.548914 8.321291 -9.317163
v -5.431755 8.321291 -9.317163
v -5.431755 2.181655 -7.109037
v -5.431755 8.321291 -7.109037
v -2.548914 2.181655 -9.317163
v -5.431755 2.181655 -9.317163
v -2.548914 8.321291 -9.317163
v -5.431755 8.321291 -9.317163
v -5.431755 2.181655 -7.109037
v -5.431755 8.321291 -7.109037
v -2.548914 2.181655 -8.986349
v -4.958696 2.181655 -8.986349
v -2.548914 8.321291 -8.986349
v -4.958696 8.321291 -8.986349
v -4.958696 2.181655 -7.109037
v -4.958696 8.321291 -7.109037
v -5.666532 3.587491 -4.867261
v 4.980464 3.587491 -4.867261
v 4.980464 7.515141 -4.867261
v -5.666532 7.515140 -4.867261
v -5.666532 3.587491 -5.444149
v -5.666532 7.515140 -5.444149
v 4.980464 3.587491 -5.444149
v 4.980464 7.515141 -5.444149
v -4.946555 4.095706 -7.092167
v -4.946555 7.695883 -7.092167
v -4.946555 4.095706 -8.172050
v -4.946555 7.695883 -8.172050
v 4.584589 4.095706 -7.092167
v 4.584589 7.695883 -7.092167
v 4.584589 4.095706 -8.172050
v 4.584589 7.695883 -8.172050
vn -1.0000 -0.0000 -0.0000
vn -0.0000 -0.0000 -1.0000
vn 1.0000 -0.0000 -0.0000
vn -0.0000 -0.0000 1.0000
vn -0.0000 -1.0000 -0.0000
vn -0.0000 1.0000 -0.0000
vn 0.7195 0.4280 0.5470
vn 0.2799 -0.6003 -0.7492
vn -0.9934 0.0784 0.0844
vn -0.0000 0.6879 0.7258
vn -0.0000 0.9999 -0.0169
vn -0.0000 0.6293 0.7772
vn -0.0000 -0.9999 0.0142
vn 0.9999 0.0121 0.0011
vn -0.0000 0.4323 0.9017
vn -0.0000 0.0780 0.9969
vn -0.9999 -0.0121 -0.0011
vn -0.0000 0.9948 0.1023
vn -0.0000 0.9269 0.3754
vn -0.0000 0.7462 0.6658
vn -0.0000 -0.8661 0.4999
vn 0.9930 0.0547 0.1046
vn -0.9828 -0.1174 -0.1425
vn -0.0000 0.9846 0.1750
vn -0.0000 -0.4323 -0.9017
vn 1.0000 0.0027 -0.0013
vn -1.0000 -0.0027 0.0013
vn -0.0000 -0.9017 0.4323
vn -0.0000 0.9017 -0.4323
vn 1.0000 0.0050 -0.0024
vn -1.0000 -0.0050 0.0024
vn -0.9850 0.1727 -0.0000
vn -0.0000 0.0861 0.9963
vn -0.9850 -0.1727 -0.0000
vn -0.0000 -0.0861 -0.9963
vn -0.7195 -0.4280 -0.5470
vn -0.9995 -0.0257 -0.0180
vn -0.0000 0.4418 0.8971
vn -0.0000 0.6162 0.7876
vn -0.5579 0.3652 0.7452
vn 0.3743 0.5714 0.7304
vn 0.9995 0.0027 -0.0330
vn -0.9995 -0.0027 0.0330
vn 0.9544 0.2227 0.1987
vn 0.9894 0.0924 0.1116
vn -0.9886 -0.1121 -0.1001
vn -0.9795 -0.0916 -0.1795
vt 0.375000 0.000000
vt 0.375000 1.000000
vt 0.125000 0.750000
vt 0.625000 0.000000
vt 0.625000 1.000000
vt 0.875000 0.750000
vt 0.125000 0.500000
vt 0.375000 0.250000
vt 0.625000 0.250000
vt 0.875000 0.500000
vt 0.375000 0.750000
vt 0.625000 0.750000
vt 0.375000 0.500000
vt 0.625000 0.500000
vt 0.375000 1.000000
vt 0.375000 0.000000
vt 0.375000 1.000000
vt 0.125000 0.750000
vt 0.375000 0.750000
vt 0.000000 0.000000
vt 0.000000 0.000000
vt 0.512077 0.750000
vt 0.000000 0.000000
vt 0.512077 1.000000
vt 0.125000 0.500000
vt 0.375000 0.250000
vt 0.000000 0.000000
vt 0.000000 0.000000
vt 0.375000 0.750000
vt 0.000000 0.000000
vt 0.000000 0.000000
vt 0.375000 0.500000
vt 0.000000 0.000000
vt 0.000000 0.000000
vt 0.000000 0.000000
vt 0.000000 0.000000
vt 0.000000 0.000000
vt 0.000000 0.000000
vt 0.000000 0.000000
vt 0.000000 0.000000
vt 0.000000 0.000000
vt 0.000000 0.000000
vt 0.000000 0.000000
vt 0.000000 0.000000
vt 0.000000 0.000000
vt 0.000000 0.000000
vt 0.000000 0.000000
vt 0.000000 0.000000
vt 0.516637 0.678598
vt 0.000000 0.000000
vt 0.516637 0.071402
vt 0.000000 0.000000
vt 0.566362 0.602732
vt 0.000000 0.000000
vt 0.566362 0.147269
vt 0.000000 0.000000
vt 0.589276 0.250000
vt 0.000000 0.000000
vt 0.589276 0.238346
vt 0.000000 0.000000
vt 0.589276 0.500000
vt 0.000000 0.000000
vt 0.589276 0.511654
vt 0.000000 0.000000
vt 0.512077 0.750000
vt 0.000000 0.000000
vt 0.512077 0.000000
vt 0.512077 1.000000
vt 0.000000 0.000000
vt 0.428033 1.000000
vt 0.000000 0.000000
vt 0.428033 0.750000
vt 0.000000 0.000000
vt 0.375000 1.000000
vt 0.000000 0.000000
vt 0.375000 0.750000
vt 0.000000 0.000000
vt 0.512077 1.000000
vt 0.000000 0.000000
vt 0.512077 0.750000
vt 0.000000 0.000000
vt 0.000000 0.000000
vt 0.000000 0.000000
vt 0.000000 0.000000
vt 0.000000 0.000000
vt 0.000000 0.000000
vt 0.000000 0.000000
vt 0.000000 0.000000
vt 0.000000 0.000000
vt 0.000000 0.000000
vt 0.000000 0.000000
vt 0.000000 0.000000
vt 0.000000 0.000000
vt 0.000000 0.000000
vt 0.000000 0.000000
vt 0.000000 0.000000
vt 0.000000 0.000000
vt 0.000000 0.000000
vt 0.000000 0.000000
vt 0.000000 0.000000
vt 0.000000 0.000000
vt 0.000000 0.000000
vt 0.000000 0.000000
vt 0.000000 0.000000
vt 0.375000 0.000000
vt 0.375000 1.000000
vt 0.125000 0.750000
vt 0.625000 0.000000
vt 0.625000 1.000000
vt 0.875000 0.750000
vt 0.125000 0.500000
vt 0.375000 0.250000
vt 0.625000 0.250000
vt 0.875000 0.500000
vt 0.375000 0.750000
vt 0.625000 0.750000
vt 0.375000 0.500000
vt 0.625000 0.500000
vt 0.375000 0.000000
vt 0.375000 1.000000
vt 0.125000 0.750000
vt 0.625000 0.000000
vt 0.625000 1.000000
vt 0.875000 0.750000
vt 0.125000 0.500000
vt 0.375000 0.250000
vt 0.625000 0.250000
vt 0.875000 0.500000
vt 0.375000 0.750000
vt 0.625000 0.750000
vt 0.375000 0.500000
vt 0.625000 0.500000
vt 0.375000 0.250000
vt 0.375000 0.500000
vt 0.589276 0.250000
vt 0.589276 0.500000
vt 0.375000 0.500000
vt 0.589276 0.500000
vt 0.375000 0.250000
vt 0.375000 0.500000
vt 0.589276 0.250000
vt 0.589276 0.500000
vt 0.375000 0.500000
vt 0.589276 0.500000
vt 0.375000 0.250000
vt 0.375000 0.500000
vt 0.589276 0.250000
vt 0.589276 0.500000
vt 0.375000 0.500000
vt 0.589276 0.500000
vt 0.375000 0.250000
vt 0.375000 0.500000
vt 0.589276 0.250000
vt 0.589276 0.500000
vt 0.375000 0.500000
vt 0.589276 0.500000
vt 0.375000 0.250000
vt 0.375000 0.500000
vt 0.589276 0.250000
vt 0.589276 0.500000
vt 0.375000 0.500000
vt 0.589276 0.500000
vt 0.375000 0.250000
vt 0.375000 0.500000
vt 0.589276 0.250000
vt 0.589276 0.500000
vt 0.375000 0.500000
vt 0.589276 0.500000
vt 0.375000 1.000000
vt 0.375000 0.750000
vt 0.512077 0.750000
vt 0.512077 1.000000
vt 0.375000 1.000000
vt 0.512077 1.000000
vt 0.375000 0.750000
vt 0.512077 0.750000
vt 0.375000 0.000000
vt 0.375000 1.000000
vt 0.125000 0.750000
vt 0.625000 0.000000
vt 0.625000 1.000000
vt 0.875000 0.750000
vt 0.125000 0.500000
vt 0.375000 0.250000
vt 0.625000 0.250000
vt 0.875000 0.500000
vt 0.375000 0.750000
vt 0.625000 0.750000
vt 0.375000 0.500000
vt 0.625000 0.500000
s 0
g Cube.049_Material.002
usemtl Material.002
f 2/4/1 3/8/1 1/1/1
f 4/9/2 7/13/2 3/8/2
f 8/14/3 5/11/3 7/13/3
f 6/12/4 1/2/4 5/11/4
f 7/13/5 1/3/5 3/7/5
f 4/10/6 6/12/6 8/14/6
f 140/180/1 141/184/1 139/177/1
f 142/185/2 145/189/2 141/184/2
f 146/190/3 143/187/3 145/189/3
f 144/188/4 139/178/4 143/187/4
f 145/189/5 139/179/5 141/183/5
f 142/186/6 144/188/6 146/190/6
f 2/4/1 4/9/1 3/8/1
f 4/9/2 8/14/2 7/13/2
f 8/14/3 6/12/3 5/11/3
f 6/12/4 2/5/4 1/2/4
f 7/13/5 5/11/5 1/3/5
f 4/10/6 2/6/6 6/12/6
f 140/180/1 142/185/1 141/184/1
f 142/185/2 146/190/2 145/189/2
f 146/190/3 144/188/3 143/187/3
f 144/188/4 140/181/4 139/178/4
f 145/189/5 143/187/5 139/179/5
f 142/186/6 140/182/6 144/188/6
g Cube.049_Material.007
usemtl Material.007
f 13/21/7 19/28/7 21/30/7
f 37/46/3 21/30/3 12/20/3
f 15/23/8 13/21/8 21/30/8
f 32/41/9 30/39/9 27/36/9
f 37/46/10 39/48/10 15/23/10
f 28/37/10 42/54/10 38/47/10
f 30/39/11 21/30/11 51/73/11
f 45/60/6 31/40/6 43/56/6
f 30/39/4 25/34/4 21/30/4
f 26/35/2 22/31/2 12/20/2
f 13/21/12 27/36/12 54/79/12
f 33/42/13 12/20/13 25/34/13
f 35/44/14 13/21/14 15/23/14
f 18/27/16 27/36/16 13/21/16
f 27/36/17 36/45/17 28/37/17
f 36/45/18 35/44/18 48/66/18
f 41/52/19 24/33/19 46/62/19
f 38/47/19 44/58/19 32/41/19
f 57/83/25 56/82/25 58/84/25
f 59/85/15 61/87/15 62/88/15
f 55/81/26 59/85/26 62/88/26
f 56/82/27 60/86/27 58/84/27
f 22/31/3 24/33/3 37/46/3
f 37/46/3 15/23/3 21/30/3
f 21/30/3 25/34/3 12/20/3
f 12/20/3 22/31/3 37/46/3
f 28/37/1 38/47/1 32/41/1
f 32/41/1 31/40/1 26/35/1
f 26/35/1 33/42/1 30/39/1
f 30/39/36 29/38/36 27/36/36
f 27/36/37 28/37/37 32/41/37
f 32/41/1 26/35/1 30/39/1
f 37/46/10 41/52/10 39/48/10
f 28/37/10 40/50/10 42/54/10
f 51/73/38 49/69/38 29/38/38
f 21/30/39 19/28/39 50/71/39
f 21/30/40 50/71/40 52/75/40
f 51/73/41 29/38/41 30/39/41
f 21/30/11 52/75/11 51/73/11
f 45/60/6 46/62/6 24/33/6
f 24/33/6 22/31/6 31/40/6
f 31/40/6 32/41/6 44/58/6
f 31/40/6 44/58/6 43/56/6
f 45/60/6 24/33/6 31/40/6
f 30/39/4 33/42/4 25/34/4
f 26/35/2 31/40/2 22/31/2
f 54/79/12 50/71/12 19/28/12
f 27/36/12 29/38/12 49/69/12
f 27/36/12 49/69/12 53/77/12
f 54/79/12 19/28/12 13/21/12
f 27/36/12 53/77/12 54/79/12
f 33/42/13 26/35/13 12/20/13
f 35/44/42 18/27/42 13/21/42
f 18/27/16 34/43/16 27/36/16
f 27/36/43 34/43/43 36/45/43
f 48/66/18 40/50/18 28/37/18
f 35/44/18 15/23/18 39/48/18
f 35/44/18 39/48/18 47/64/18
f 48/66/18 28/37/18 36/45/18
f 35/44/18 47/64/18 48/66/18
f 41/52/19 37/46/19 24/33/19
f 38/47/19 42/54/19 44/58/19
f 57/83/25 55/81/25 56/82/25
f 59/85/15 60/86/15 61/87/15
f 55/81/26 57/83/26 59/85/26
f 56/82/27 61/87/27 60/86/27
g Cube.049_Material.009
usemtl Material.009
f 35/44/15 34/43/15 18/27/15
f 55/81/28 61/87/28 56/82/28
f 57/83/29 60/86/29 59/85/29
f 35/44/15 36/45/15 34/43/15
f 55/81/28 62/88/28 61/87/28
f 57/83/29 58/84/29 60/86/29
g Cube.049_Material.012
usemtl Material.012
f 40/51/3 10/16/3 43/57/3
f 17/26/4 45/61/4 43/57/4
f 23/32/1 39/49/1 46/63/1
f 10/17/2 47/65/2 20/29/2
f 10/18/6 23/32/6 17/25/6
f 16/24/20 11/19/20 14/22/20
f 16/24/21 54/80/21 53/78/21
f 16/24/22 49/70/22 51/74/22
f 11/19/23 50/72/23 54/80/23
f 52/76/24 9/15/24 51/74/24
f 65/91/25 64/90/25 66/92/25
f 67/93/15 69/95/15 70/96/15
f 63/89/26 67/93/26 70/96/26
f 64/90/27 68/94/27 66/92/27
f 43/57/3 44/59/3 42/55/3
f 40/51/3 48/67/3 10/16/3
f 43/57/3 42/55/3 40/51/3
f 10/16/3 17/26/3 43/57/3
f 17/26/4 23/32/4 45/61/4
f 46/63/1 45/61/1 23/32/1
f 23/32/1 20/29/1 47/65/1
f 39/49/1 41/53/1 46/63/1
f 23/32/1 47/65/1 39/49/1
f 10/17/2 48/68/2 47/65/2
f 10/18/6 20/29/6 23/32/6
f 16/24/20 9/15/20 11/19/20
f 16/24/21 14/22/21 54/80/21
f 51/74/44 9/15/44 16/24/44
f 16/24/45 53/78/45 49/70/45
f 54/80/46 14/22/46 11/19/46
f 11/19/47 52/76/47 50/72/47
f 52/76/24 11/19/24 9/15/24
f 65/91/25 63/89/25 64/90/25
f 67/93/15 68/94/15 69/95/15
f 63/89/26 65/91/26 67/93/26
f 64/90/27 69/95/27 68/94/27
g Cube.049_Material.001
usemtl Material.001
f 73/99/25 72/98/25 74/100/25
f 75/101/15 77/103/15 78/104/15
f 71/97/30 75/101/30 78/104/30
f 72/98/31 76/102/31 74/100/31
f 80/108/32 81/112/32 79/105/32
f 82/113/2 85/117/2 81/112/2
f 85/117/3 84/116/3 83/115/3
f 83/115/33 80/109/33 79/106/33
f 85/117/5 79/107/5 81/111/5
f 82/114/6 84/116/6 86/118/6
f 88/122/34 89/126/34 87/119/34
f 90/127/4 93/131/4 89/126/4
f 93/131/3 92/130/3 91/129/3
f 91/129/35 88/123/35 87/120/35
f 93/131/6 87/121/6 89/125/6
f 90/128/5 92/130/5 94/132/5
f 133/171/4 131/169/4 132/170/4
f 135/173/2 138/176/2 137/175/2
f 133/171/6 136/174/6 134/172/6
f 134/172/1 135/173/1 131/169/1
f 132/170/3 138/176/3 133/171/3
f 131/169/5 137/175/5 132/170/5
f 73/99/25 71/97/25 72/98/25
f 75/101/15 76/102/15 77/103/15
f 71/97/30 73/99/30 75/101/30
f 72/98/31 77/103/31 76/102/31
f 80/108/32 82/113/32 81/112/32
f 82/113/2 86/118/2 85/117/2
f 85/117/3 86/118/3 84/116/3
f 83/115/33 84/116/33 80/109/33
f 85/117/5 83/115/5 79/107/5
f 82/114/6 80/110/6 84/116/6
f 88/122/34 90/127/34 89/126/34
f 90/127/4 94/132/4 93/131/4
f 93/131/3 94/132/3 92/130/3
f 91/129/35 92/130/35 88/123/35
f 93/131/6 91/129/6 87/121/6
f 90/128/5 88/124/5 92/130/5
f 133/171/4 134/172/4 131/169/4
f 135/173/2 136/174/2 138/176/2
f 133/171/6 138/176/6 136/174/6
f 134/172/1 136/174/1 135/173/1
f 132/170/3 137/175/3 138/176/3
f 131/169/5 135/173/5 137/175/5
g Cube.049_Material.008
usemtl Material.008
f 98/136/2 95/133/2 97/135/2
f 100/138/3 96/134/3 98/136/3
f 103/141/6 110/148/6 104/142/6
f 106/144/4 111/149/4 105/143/4
f 95/133/6 102/140/6 101/139/6
f 100/138/6 104/142/6 106/144/6
f 97/135/6 101/139/6 103/141/6
f 96/134/6 105/143/6 102/140/6
f 99/137/6 106/144/6 105/143/6
f 98/136/6 103/141/6 104/142/6
f 107/145/4 110/148/4 109/147/4
f 108/146/1 112/150/1 110/148/1
f 101/139/5 108/146/5 107/145/5
f 106/144/6 110/148/6 112/150/6
f 101/139/1 109/147/1 103/141/1
f 105/143/5 108/146/5 102/140/5
f 116/154/4 113/151/4 115/153/4
f 118/156/3 114/152/3 116/154/3
f 121/159/5 128/166/5 122/160/5
f 124/162/2 129/167/2 123/161/2
f 113/151/6 120/158/6 119/157/6
f 118/156/6 122/160/6 124/162/6
f 115/153/6 119/157/6 121/159/6
f 114/152/6 123/161/6 120/158/6
f 117/155/6 124/162/6 123/161/6
f 116/154/6 121/159/6 122/160/6
f 125/163/2 128/166/2 127/165/2
f 126/164/1 130/168/1 128/166/1
f 119/157/6 126/164/6 125/163/6
f 124/162/5 128/166/5 130/168/5
f 119/157/1 127/165/1 121/159/1
f 123/161/6 126/164/6 120/158/6
f 98/136/2 96/134/2 95/133/2
f 100/138/3 99/137/3 96/134/3
f 103/141/6 109/147/6 110/148/6
f 106/144/4 112/150/4 111/149/4
f 95/133/6 96/134/6 102/140/6
f 100/138/6 98/136/6 104/142/6
f 97/135/6 95/133/6 101/139/6
f 96/134/6 99/137/6 105/143/6
f 99/137/6 100/138/6 106/144/6
f 98/136/6 97/135/6 103/141/6
f 107/145/4 108/146/4 110/148/4
f 108/146/1 111/149/1 112/150/1
f 101/139/5 102/140/5 108/146/5
f 106/144/6 104/142/6 110/148/6
f 101/139/1 107/145/1 109/147/1
f 105/143/5 111/149/5 108/146/5
f 116/154/4 114/152/4 113/151/4
f 118/156/3 117/155/3 114/152/3
f 121/159/5 127/165/5 128/166/5
f 124/162/2 130/168/2 129/167/2
f 113/151/6 114/152/6 120/158/6
f 118/156/6 116/154/6 122/160/6
f 115/153/6 113/151/6 119/157/6
f 114/152/6 117/155/6 123/161/6
f 117/155/6 118/156/6 124/162/6
f 116/154/6 115/153/6 121/159/6
f 125/163/2 126/164/2 128/166/2
f 126/164/1 129/167/1 130/168/1
f 119/157/6 120/158/6 126/164/6
f 124/162/5 122/160/5 128/166/5
f 119/157/1 125/163/1 127/165/1
f 123/161/6 129/167/6 126/164/6
